# xmcd
#
# Track frame offsets:
#	204
#	21185
#	42162
#	64786
#	85324
#	102138
#	126684
#	153094
#	174564
#	194965
#
# Disc length: 2806 seconds
#
# Revision: 0
# Processed by: cddbd v1.5.1PL2 Copyright (c) Steve Scherf et al.
# Submitted via: dBpowerAMP V4.0
#
DISCID=890af40a
DTITLE=Ian Janes - As it seems
DYEAR=2002
DGENRE=R&B
TTITLE0=What I Was Waiting For
TTITLE1=A Lie Is A Lie
TTITLE2=No Love As True
TTITLE3=Forget You
TTITLE4=You Had Your Chance
TTITLE5=Simple As It Seems
TTITLE6=All The Time
TTITLE7=You And I
TTITLE8=What Is Mine Is Yours
TTITLE9=Till You Make Up Your Mind
EXTD=
EXTT0=
EXTT1=
EXTT2=
EXTT3=
EXTT4=
EXTT5=
EXTT6=
EXTT7=
EXTT8=
EXTT9=
PLAYORDER=
